# xmcd CD database file
# Copyright (C) 1996 Ti Kan
#
# Track frame offsets:
#  150
#  23060
#  47215
#  66655
#  83657
#  102240
#  116580
#  132405
#  154347
#  172880
#  189445
#  204830
#  220060
#  234817
#  250587
#  272840
#  280120
#  297370
#  309450
#
# Disc length: 4347 seconds
#
# Revision: 1
# Processed by: cddbd v1.4b41PL1 Copyright (c) Steve Scherf et al.
# Submitted via: CDWizzard Release:4.14
#
DISCID=0b10f913
DTITLE=Master P - West Coast Bad Boyz II
DYEAR=1900
DGENRE=
TTITLE0=R.I.P. Tupac
TTITLE1=Bangin'
TTITLE2=Survival 1st
TTITLE3=Tryin 2 Make Ends
TTITLE4=Datz What I said
TTITLE5=Got Tha Best Hand
TTITLE6=Up's and Down's
TTITLE7=Bad Boyz on a Mission
TTITLE8=Call it What You Want
TTITLE9=IMG
TTITLE10=Roll Yo Voges
TTITLE11=What Cha Like
TTITLE12=Mr. Dayton
TTITLE13=Hands on My Four 5
TTITLE14=The Unexpected
TTITLE15=A Dead man (commercial)
TTITLE16=Paper Chasing
TTITLE17=Breakin' Skrill
TTITLE18=Steady Mobbin'
EXTD=
EXTT0=Master P
EXTT1=Westside Connection
EXTT2=C-BO
EXTT3=11/5
EXTT4=Brotha Lynch Hung
EXTT5=Comrads and Allfrumthai
EXTT6=Rappin 4 Tay
EXTT7=TRU
EXTT8=RBL Posse
EXTT9=E-A-Ski
EXTT10=Cellski Feat, Balhead and S.B.
EXTT11=Mac Dre
EXTT12=Homicide
EXTT13=The Shocker
EXTT14=The GLP
EXTT15=Mr. Serv-on
EXTT16=MC Eiht
EXTT17=The Delinquents
EXTT18=C-Murder
PLAYORDER=
